<?xml version="1.0" encoding="UTF-8"?>
<svg id="Capa_1" data-name="Capa 1" xmlns="http://www.w3.org/2000/svg" viewBox="0 0 80.27 83.15">
  <defs>
    <style>
      .cls-1 {
        fill: #00833f;
      }
    </style>
  </defs>
  <path class="cls-1" d="M64.89,70.32c0,4.1-3.34,7.44-7.44,7.44H12.82c-4.1,0-7.44-3.34-7.44-7.44V12.83c0-4.1,3.34-7.44,7.44-7.44h44.63c4.1,0,7.44,3.34,7.44,7.44v3.28l5.19-5.19c-.93-6.16-6.21-10.91-12.63-10.91H12.82C5.75,0,0,5.75,0,12.83v57.49c0,7.07,5.75,12.83,12.82,12.83h44.63c7.07,0,12.82-5.75,12.82-12.83v-31.99l-5.39,5.39v26.61Z"/>
  <path class="cls-1" d="M30.74,58.1l-2.33,6.34c-.2.55-.07,1.17.35,1.58.41.41,1.03.55,1.58.35l6.34-2.33-5.95-5.95Z"/>
  <path class="cls-1" d="M44.61,60.19l35.22-35.22c.28-.28.44-.67.44-1.07s-.16-.78-.44-1.06l-7.87-7.87c-.59-.59-1.54-.59-2.13,0l-35.22,35.22,10,10Z"/>
  <path class="cls-1" d="M55.83,25.16v-1.71H17.33c-1.27,0-2.31,1.03-2.31,2.31v2.2c0,1.27,1.03,2.31,2.31,2.31h33.4l5.1-5.1Z"/>
  <path class="cls-1" d="M15.02,42.67c0,1.27,1.03,2.31,2.31,2.31h18.69l6.81-6.82h-25.5c-1.27,0-2.31,1.03-2.31,2.31v2.2Z"/>
  <path class="cls-1" d="M15.02,57.39c0,1.27,1.03,2.31,2.31,2.31h9.97l2.49-6.81h-12.46c-1.27,0-2.31,1.03-2.31,2.31v2.2Z"/>
</svg>