<?xml version="1.0" encoding="UTF-8"?>
<svg id="Capa_1" data-name="Capa 1" xmlns="http://www.w3.org/2000/svg" viewBox="0 0 93.34 79.37">
  <defs>
    <style>
      .cls-1 {
        fill: #00833f;
      }
    </style>
  </defs>
  <path class="cls-1" d="M34.36,13.1C15.38,13.1,0,26.33,0,42.66c0,9.07,4.76,17.18,12.24,22.6l3.9,11.7c.32.98,1.06,1.76,2,2.15.95.39,2.02.35,2.93-.12l13.28-6.77c18.98,0,34.36-13.24,34.36-29.56s-15.38-29.56-34.36-29.56ZM34.36,65.64h-1.58l-1.41.72-6.46,3.29c-.91.46-1.98.51-2.93.12-.95-.39-1.68-1.17-2.01-2.15l-1.48-4.44-.67-2.01-1.71-1.24c-6.05-4.38-9.52-10.68-9.52-17.27,0-12.67,12.46-22.98,27.77-22.98s27.77,10.31,27.77,22.98-12.46,22.98-27.77,22.98Z"/>
  <path class="cls-1" d="M63.85,0c-9.69,0-18.26,4.04-23.64,10.25,17.98,2.47,31.79,16.04,31.79,32.42,0,3.9-.82,7.62-2.26,11.09l4.98,2.54c.92.47,1.98.51,2.93.12.95-.39,1.68-1.18,2.01-2.15l3.16-9.49c6.42-4.65,10.5-11.62,10.5-19.4,0-14.01-13.2-25.37-29.49-25.37Z"/>
  <path class="cls-1" d="M23.41,38.57c-2.12,0-3.83,1.72-3.83,3.83s1.72,3.83,3.83,3.83,3.83-1.72,3.83-3.83-1.72-3.83-3.83-3.83Z"/>
  <path class="cls-1" d="M34.36,38.57c-2.12,0-3.83,1.72-3.83,3.83s1.72,3.83,3.83,3.83,3.83-1.72,3.83-3.83-1.72-3.83-3.83-3.83Z"/>
  <path class="cls-1" d="M45.31,38.57c-2.12,0-3.83,1.72-3.83,3.83s1.72,3.83,3.83,3.83,3.83-1.72,3.83-3.83-1.72-3.83-3.83-3.83Z"/>
</svg>