<?xml version="1.0" encoding="UTF-8"?>
<svg id="Capa_1" data-name="Capa 1" xmlns="http://www.w3.org/2000/svg" viewBox="0 0 422.18 204.47">
  <defs>
    <style>
      .cls-1 {
        fill: #00833f;
      }
    </style>
  </defs>
  <path class="cls-1" d="M267.61,182.02h-8.88c-.68,1.46-2,2.63-4.34,2.63-2.68,0-4.88-1.66-5.17-5.22h18.88c.1-.83.15-1.66.15-2.44,0-8.3-5.61-13.56-13.56-13.56s-13.76,5.37-13.76,14,5.76,14,13.76,14c6.78,0,11.61-4.1,12.93-9.42M254.58,170.12c2.78,0,5.12,1.71,5.12,4.68h-10.44c.49-3.03,2.58-4.68,5.32-4.68ZM224.09,181.58c0,7.07,3.95,9.46,9.61,9.46h4.24v-7.07h-2.98c-1.85,0-2.54-.68-2.54-2.29v-10.93h5.47v-6.93h-5.47v-6.64h-8.34v6.64h-3.32v6.93h3.32v10.83ZM208.67,191.05h8.29v-15.91c0-7.32-4.2-11.61-10.49-11.61-3.66,0-6.59,1.61-8.24,3.9v-3.61h-8.34v27.22h8.34v-14.78c0-3.71,2.05-5.76,5.22-5.76s5.22,2.05,5.22,5.76v14.78ZM184.86,182.02h-8.88c-.68,1.46-2,2.63-4.34,2.63-2.68,0-4.88-1.66-5.17-5.22h18.88c.1-.83.15-1.66.15-2.44,0-8.3-5.61-13.56-13.56-13.56s-13.76,5.37-13.76,14,5.76,14,13.76,14c6.78,0,11.61-4.1,12.93-9.42ZM171.83,170.12c2.78,0,5.12,1.71,5.12,4.68h-10.44c.49-3.03,2.59-4.68,5.32-4.68ZM145.44,177.43c0,4.34-2.78,6.73-5.95,6.73s-5.95-2.44-5.95-6.78,2.83-6.69,5.95-6.69,5.95,2.39,5.95,6.73ZM125.05,177.39c0,8.59,5.32,14.05,12,14.05,4,0,6.88-1.9,8.39-4.29v3.85c0,4.59-2.49,6.24-5.66,6.24-2.88,0-4.93-1.32-5.46-3.37h-8.25c.73,6.49,6,10.59,14.1,10.59,9.42,0,13.61-6.2,13.61-13.47v-27.17h-8.34v3.86c-1.46-2.44-4.39-4.25-8.39-4.25-6.69,0-12,5.37-12,13.96ZM112.31,191.05h8.34v-27.22h-8.34v27.22ZM97.92,191.05h8.34v-36.1h-8.34v36.1ZM92.89,182.02h-8.88c-.68,1.46-2,2.63-4.34,2.63-2.68,0-4.88-1.66-5.17-5.22h18.88c.1-.83.15-1.66.15-2.44,0-8.3-5.61-13.56-13.56-13.56s-13.76,5.37-13.76,14,5.76,14,13.76,14c6.78,0,11.61-4.1,12.93-9.42ZM79.87,170.12c2.78,0,5.12,1.71,5.12,4.68h-10.44c.49-3.03,2.58-4.68,5.32-4.68ZM49.37,181.58c0,7.07,3.95,9.46,9.61,9.46h4.24v-7.07h-2.98c-1.85,0-2.54-.68-2.54-2.29v-10.93h5.47v-6.93h-5.47v-6.64h-8.34v6.64h-3.32v6.93h3.32v10.83ZM33.96,191.05h8.29v-15.91c0-7.32-4.2-11.61-10.49-11.61-3.66,0-6.59,1.61-8.24,3.9v-3.61h-8.34v27.22h8.34v-14.78c0-3.71,2.05-5.76,5.22-5.76s5.22,2.05,5.22,5.76v14.78ZM4.98,160.99c2.93,0,4.93-2,4.93-4.49s-2-4.54-4.93-4.54-4.98,2-4.98,4.54,2,4.49,4.98,4.49ZM116.51,160.99c2.93,0,4.93-2,4.93-4.49s-2-4.54-4.93-4.54-4.98,2-4.98,4.54,2,4.49,4.98,4.49ZM.78,191.05h8.34v-27.22H.78v27.22Z"/>
  <path d="M421.07,121.57h-15.53c-1.19,2.56-3.5,4.61-7.6,4.61-4.69,0-8.54-2.9-9.05-9.13h33.03c.17-1.45.26-2.9.26-4.27,0-14.51-9.82-23.73-23.73-23.73s-24.07,9.39-24.07,24.5,10.07,24.5,24.07,24.5c11.87,0,20.32-7.17,22.62-16.47M398.28,100.75c4.87,0,8.96,2.99,8.96,8.19h-18.27c.85-5.29,4.52-8.19,9.3-8.19ZM366.79,89.74h-14.6v25.86c0,6.49-3.59,10.07-9.22,10.07s-9.13-3.59-9.13-10.07v-25.86h-14.51v27.82c0,12.72,7.43,20.32,18.44,20.32,6.4,0,11.52-2.9,14.42-7v6.49h14.6v-47.63ZM294.57,113.55c0,8.02-5.46,11.78-10.41,11.78s-10.41-3.67-10.41-11.69,5.55-11.78,10.41-11.78,10.41,3.67,10.41,11.69ZM258.89,113.64c0,14.51,9.9,24.33,21.6,24.33,6.31,0,11.01-2.82,14.08-6.57v28.68h14.6v-70.34h-14.6v5.46c-2.9-3.59-7.68-5.97-13.91-5.97-11.87,0-21.77,9.9-21.77,24.41ZM236.61,113.55c0,7.6-4.87,11.78-10.42,11.78s-10.41-4.27-10.41-11.86,4.95-11.69,10.41-11.69,10.42,4.18,10.42,11.78ZM200.93,113.47c0,15.02,9.3,24.58,20.91,24.58,7.08,0,12.12-3.24,14.77-7.43v6.74h14.6v-47.63h-14.6v6.74c-2.56-4.18-7.6-7.43-14.68-7.43-11.69,0-21,9.39-21,24.41ZM181.3,113.47c0,7.6-4.95,11.86-10.5,11.86s-10.41-4.18-10.41-11.78,4.95-11.78,10.41-11.78,10.5,4.1,10.5,11.69ZM160.47,96.48v-6.74h-14.6v70.34h14.6v-29.36c2.65,4.01,7.68,7.34,14.68,7.34,11.69,0,21-9.56,21-24.58s-9.3-24.41-21-24.41c-7,0-12.03,3.24-14.68,7.43ZM121.12,137.37h14.51v-27.83c0-12.81-7.6-20.32-19.38-20.32-6.91,0-12.89,3.84-16.05,8.88-3.25-5.72-9.05-8.88-16.22-8.88-6.23,0-11.1,2.65-13.91,6.49v-5.97h-14.6v47.63h14.6v-25.86c0-6.23,3.59-9.65,9.13-9.65s9.13,3.41,9.13,9.65v25.86h14.51v-25.86c0-6.23,3.58-9.65,9.13-9.65s9.13,3.41,9.13,9.65v25.86ZM46.69,121.57h-15.53c-1.2,2.56-3.5,4.61-7.6,4.61-4.69,0-8.54-2.9-9.05-9.13h33.03c.17-1.45.26-2.9.26-4.27,0-14.51-9.82-23.73-23.73-23.73S0,98.44,0,113.55s10.07,24.5,24.07,24.5c11.86,0,20.32-7.17,22.62-16.47ZM23.9,100.75c4.87,0,8.96,2.99,8.96,8.19H14.6c.85-5.29,4.52-8.19,9.3-8.19Z"/>
  <path d="M362.69,52.58h-15.54c-1.19,2.56-3.5,4.61-7.6,4.61-4.69,0-8.54-2.9-9.05-9.13h33.03c.17-1.45.25-2.9.25-4.27,0-14.51-9.82-23.73-23.73-23.73s-24.07,9.39-24.07,24.5,10.07,24.5,24.07,24.5c11.87,0,20.32-7.17,22.62-16.47M339.9,31.75c4.87,0,8.97,2.99,8.97,8.19h-18.27c.85-5.29,4.52-8.19,9.3-8.19ZM293.72,44.56c0,7.6-4.87,11.78-10.41,11.78s-10.41-4.27-10.41-11.87,4.95-11.69,10.41-11.69,10.41,4.18,10.41,11.78ZM258.04,44.47c0,15.02,9.3,24.58,21,24.58,7,0,12.03-3.16,14.68-7.51v6.83h14.6V5.21h-14.6v22.11c-2.9-4.35-8.37-7.25-14.68-7.25-11.69,0-21,9.39-21,24.41ZM217.66,44.56c0,7.6-4.87,11.78-10.41,11.78s-10.41-4.27-10.41-11.87,4.95-11.69,10.41-11.69,10.41,4.18,10.41,11.78ZM181.98,44.47c0,15.02,9.31,24.58,20.92,24.58,7.08,0,12.12-3.24,14.76-7.43v6.74h14.6V20.74h-14.6v6.75c-2.56-4.18-7.6-7.43-14.68-7.43-11.69,0-21,9.39-21,24.41ZM152.54,51.81c0,12.38,6.91,16.56,16.81,16.56h7.43v-12.38h-5.2c-3.25,0-4.44-1.19-4.44-4.01v-19.12h9.56v-12.12h-9.56v-11.61h-14.6v11.61h-5.81v12.12h5.81v18.95ZM125.56,68.37h14.51v-27.82c0-12.81-7.34-20.32-18.35-20.32-6.4,0-11.52,2.82-14.43,6.83v-6.32h-14.6v47.63h14.6v-25.86c0-6.49,3.59-10.07,9.13-10.07s9.13,3.59,9.13,10.07v25.86ZM74.86,15.79c5.12,0,8.62-3.5,8.62-7.85s-3.5-7.94-8.62-7.94-8.71,3.5-8.71,7.94,3.5,7.85,8.71,7.85ZM67.52,68.37h14.6V20.74h-14.6v47.63ZM0,38.33c0,17.93,12.46,30.48,30.13,30.48,14.25,0,25.01-7.94,28.42-20.91h-16.05c-2.47,5.12-7,7.68-12.55,7.68-8.96,0-15.11-6.66-15.11-17.24s6.15-17.24,15.11-17.24c5.55,0,10.07,2.56,12.55,7.68h16.05c-3.41-12.97-14.17-21-28.42-21C12.46,7.77,0,20.4,0,38.33Z"/>
</svg>
