<?xml version="1.0" encoding="UTF-8"?>
<svg id="Capa_1" data-name="Capa 1" xmlns="http://www.w3.org/2000/svg" viewBox="0 0 84.25 79.59">
  <defs>
    <style>
      .cls-1 {
        fill: #00833f;
      }
    </style>
  </defs>
  <path class="cls-1" d="M84.25,60.5c0-7.24-5.87-13.11-13.11-13.11h-7.18V12.65c0-6.99-5.67-12.65-12.65-12.65H12.65C5.67,0,0,5.67,0,12.65v53.83c0,7.24,5.87,13.11,13.11,13.11l59.22-.06c6.68-.6,11.92-6.21,11.92-13.05v-5.98ZM13.11,74.07c-4.19,0-7.59-3.41-7.59-7.59V12.65c0-3.93,3.2-7.13,7.13-7.13h38.64c3.93,0,7.13,3.2,7.13,7.13l-.06,53.83c0,2.83.91,5.45,2.43,7.59H13.11ZM78.73,66.48c0,4.13-3.31,7.49-7.42,7.58-4.11-.09-7.42-3.46-7.42-7.58l.06-13.57h7.18c4.19,0,7.59,3.41,7.59,7.59v5.98Z"/>
  <rect class="cls-1" x="31.85" y="26.9" width="19.67" height="5.52"/>
  <rect class="cls-1" x="31.85" y="16.68" width="19.67" height="5.52"/>
  <rect class="cls-1" x="12.18" y="37.12" width="39.33" height="5.52"/>
  <rect class="cls-1" x="12.18" y="47.34" width="39.33" height="5.52"/>
  <rect class="cls-1" x="12.18" y="57.57" width="39.33" height="5.52"/>
  <rect class="cls-1" x="12.18" y="16.5" width="15.53" height="15.99"/>
</svg>