<?xml version="1.0" encoding="UTF-8"?>
<svg id="Capa_1" data-name="Capa 1" xmlns="http://www.w3.org/2000/svg" viewBox="0 0 89.85 90.76">
  <defs>
    <style>
      .cls-1 {
        fill: #00833f;
        fill-rule: evenodd;
      }
    </style>
  </defs>
  <g id="Capa_1-2" data-name="Capa_1">
    <path class="cls-1" d="M59.84,77.41c.51.3,19.49,2.48,28.91,3.6,1.3.16,1.52,1.95.29,2.42l-19.06,7.25c-.19.07-.4.1-.61.07l-39.8-5.17c-4.26-.58-8.36-2.29-11.64-4.61-.52-.37-1-.78-1.53-1.13-2.24-1.49-4.97-4.78-6.67-6.92-4.63-5.81-8.23-15.48-9.21-23.26-1.78-14.25.99-26.32,7.82-36.1,1.37-1.96,4.07-4.76,5.97-6.21,4.35-3.32,7.43-4.27,13.06-5.43,3.11-.64,6.17-1.11,9.37-1.55,6.94-.96,12.68,0,17.92,3,15.05,8.63,20.56,27.18,19.47,45.17-.1,1.69-.3,3.15-.56,4.8-1.23,7.86-3.86,14.43-9.22,20.35-.9.99-3.39,3.17-4.54,3.73h0ZM82.93,82.97l-13.37,4.9c-.19.07-.39.09-.59.07l-22.8-2.9c-1.33-.17-1.5-2.03-.23-2.44l8.7-2.8c.17-.05.35-.07.53-.05l27.76,3.22h0ZM63.23,71.01c-2.06,2.52-5.42,4.91-8.44,6.03-.35.13-.7.25-1.06.37-1.18.39-2.13-.98-1.38-1.97.01-.02.02-.03.04-.05,1.89-2.5,3.66-5.27,4.92-8.15.28-.64,1.83-4.47,1.85-4.58.51-2.58,1.54-4.52,2-8.94.28-2.72.35-5.44.32-8.13-.07-7.1-1.13-14.01-3.77-20.27-2.3-5.48-4.83-9.76-8.29-13.42-1.65-1.75-3.49-3.64-5.8-5.12-1.18-.75-2.12-1.32-3.42-2.04-.54-.3-1.27-.61-1.82-.83-.48-.2-1.58-.54-1.98-.77.71-.34,4.86-.51,5.92-.51,11.88-.04,21.59,10.19,25.62,20.58,2.32,5.96,3.68,13.26,3.71,20.6.04,10.29-2.08,19.46-8.43,27.2ZM13.25,24.96c-.04.06-.07.12-.1.19-.25.55-1.26,2.4-1.82,3.74-1.86,4.47-2.56,9.8-2.38,14.75.28,7.53,2.98,16.05,7.3,21.37.67.82,1.22,1.57,1.97,2.22.62.53.26.44,1.49,1.43,2.04,1.63,3.62,2.86,6.39,3.76,3.12,1.01,6.68,1.03,9.7-.14,3.33-1.29,6.01-3.56,7.99-6.36,6.86-9.69,6.79-24.22,2.33-34.47-3.32-7.63-9.82-15.57-18.91-15.45-3.7.05-6.13,1.29-8.58,2.91-.04.03-.08.06-.12.09l-1.43,1.18c-1.22,1.06-2.91,3.31-3.85,4.78ZM9.95,15.87c.03-.05.07-.09.11-.14.84-.9,1.65-2.45,3.71-4.34,1.74-1.6,2.43-2.26,4.55-3.58,3.79-2.36,7.83-3.32,13.11-3.02,3.88.22,8.33,2.49,11.42,4.68,1.51,1.07,2.81,2.26,4.3,3.82.64.67,1.25,1.41,1.88,2.19.33.4.53.7.88,1.15,4.91,6.23,8.29,16.29,8.99,25.9.35,4.88-.04,10.61-1.15,15.12-1.08,4.42-2.34,8.02-4.55,11.82-1.01,1.74-2.81,4.35-4.26,5.89-11.4,12.07-26.43,9.37-36.54-3.34-4.55-5.72-8.28-14.48-9.32-23.39-.66-5.59-.46-9.76.16-15.23.35-3.15,2.12-8.75,3.58-11.98.14-.31-.05-.19.18-.26.43-1.43,2.12-4.02,2.96-5.29ZM30.84,19.12s-.06.03-.07.08c-.01.05-.05.06-.07.08l-2.33,1.9s-.08.07-.12.11c-2.7,2.81-3.61,4.59-5.07,8.65-3.14,8.77-.53,21.91,5.42,28.96,1.23,1.45,3.07,3.22,5.02,4.25,1.75.93,3.24,1.4,5.1,1.54,1.1.08,1.57,1.42.77,2.17-.54.5-1.07.94-1.42,1.2-4.68,3.47-10.69,3.1-15.06-.15-2.32-1.72-3.36-2.8-4.96-4.94-.52-.7-.92-1.29-1.39-2.04-3.87-6.28-5.45-14.11-4.97-21.72.51-8.13,4.5-18.14,13.17-20.28,2.36-.58,3.81-.16,5.99.2ZM46.6,46.8c0,4.52-.74,9.19-2.4,12.91-.57,1.28-.32,1.5-1.71,1.97-6.86,2.33-12.94-4.45-15.33-10.25-3.33-8.09-4-18.24.9-25.75,1.47-2.25,2.98-3.71,5.42-4.86.83-.39,1.67.32,2.67,1.18.46.4.78.6,1.17.99,2.69,2.78,4.82,5.53,6.55,9.95,1.62,4.13,2.73,8.85,2.73,13.86Z"/>
  </g>
</svg>
